<?xml version="1.0" standalone="no"?><!DOCTYPE svg PUBLIC "-//W3C//DTD SVG 1.1//EN" "http://www.w3.org/Graphics/SVG/1.1/DTD/svg11.dtd"><svg xmlns:xlink="http://www.w3.org/1999/xlink" version="1.1" style="font-family:'lucida grande', 'lucida sans unicode', arial, helvetica, sans-serif;font-size:12px;" xmlns="http://www.w3.org/2000/svg" width="600" height="400"><desc>Created with Highcharts 4.2.7</desc><defs><clipPath id="highcharts-31"><rect x="1" y="1" width="530" height="290"></rect></clipPath></defs><rect x="58" y="36" width="532" height="292" fill="#ffffff"></rect><path fill="rgb(255, 255, 255)" fill-opacity=" .5" d="M 58 328.5 L 590 328.5 590 279.5 58 279.5"></path><path fill="rgb(255, 255, 255)" fill-opacity=" .5" d="M 58 231.5 L 590 231.5 590 182.5 58 182.5"></path><path fill="rgb(255, 255, 255)" fill-opacity=" .5" d="M 58 133.5 L 590 133.5 590 85.5 58 85.5"></path><g class="highcharts-grid"></g><g class="highcharts-grid"><path fill="none" d="M 58 328.5 L 590 328.5" stroke="#C0C0C0" stroke-width="1" opacity="1"></path><path fill="none" d="M 58 279.5 L 590 279.5" stroke="#C0C0C0" stroke-width="1" opacity="1"></path><path fill="none" d="M 58 231.5 L 590 231.5" stroke="#C0C0C0" stroke-width="1" opacity="1"></path><path fill="none" d="M 58 182.5 L 590 182.5" stroke="#C0C0C0" stroke-width="1" opacity="1"></path><path fill="none" d="M 58 133.5 L 590 133.5" stroke="#C0C0C0" stroke-width="1" opacity="1"></path><path fill="none" d="M 58 85.5 L 590 85.5" stroke="#C0C0C0" stroke-width="1" opacity="1"></path><path fill="none" d="M 58 35.5 L 590 35.5" stroke="#C0C0C0" stroke-width="1" opacity="1"></path></g><rect x="58" y="36" width="532" height="292" stroke="#026FC1" stroke-width="2" fill="none"></rect><g class="highcharts-axis"><path fill="none" d="M 133.5 328 L 133.5 338" stroke="#C0D0E0" stroke-width="1" opacity="1"></path><path fill="none" d="M 209.5 328 L 209.5 338" stroke="#C0D0E0" stroke-width="1" opacity="1"></path><path fill="none" d="M 285.5 328 L 285.5 338" stroke="#C0D0E0" stroke-width="1" opacity="1"></path><path fill="none" d="M 361.5 328 L 361.5 338" stroke="#C0D0E0" stroke-width="1" opacity="1"></path><path fill="none" d="M 437.5 328 L 437.5 338" stroke="#C0D0E0" stroke-width="1" opacity="1"></path><path fill="none" d="M 513.5 328 L 513.5 338" stroke="#C0D0E0" stroke-width="1" opacity="1"></path><path fill="none" d="M 590.5 328 L 590.5 338" stroke="#C0D0E0" stroke-width="1" opacity="1"></path><path fill="none" d="M 57.5 328 L 57.5 338" stroke="#C0D0E0" stroke-width="1" opacity="1"></path><path fill="none" d="M 58 328.5 L 590 328.5" stroke="#C0D0E0" stroke-width="1"></path></g><g class="highcharts-axis"><path fill="none" d="M 58 328.5 L 48 328.5" stroke="#C0D0E0" stroke-width="1" opacity="1"></path><path fill="none" d="M 58 279.5 L 48 279.5" stroke="#C0D0E0" stroke-width="1" opacity="1"></path><path fill="none" d="M 58 231.5 L 48 231.5" stroke="#C0D0E0" stroke-width="1" opacity="1"></path><path fill="none" d="M 58 182.5 L 48 182.5" stroke="#C0D0E0" stroke-width="1" opacity="1"></path><path fill="none" d="M 58 133.5 L 48 133.5" stroke="#C0D0E0" stroke-width="1" opacity="1"></path><path fill="none" d="M 58 85.5 L 48 85.5" stroke="#C0D0E0" stroke-width="1" opacity="1"></path><path fill="none" d="M 58 35.5 L 48 35.5" stroke="#C0D0E0" stroke-width="1" opacity="1"></path><text x="21" text-anchor="middle" transform="translate(0,0) rotate(270 21 182)" class=" highcharts-yaxis-title" style="color:#000000;font-size:10px;font-family:'arial', sans-serif;text-transform:none;font-weight:normal;fill:#000000;" y="182"><tspan>Bugs Squashed</tspan></text></g><g class="highcharts-series-group"><g class="highcharts-series highcharts-series-0" transform="translate(58,36) scale(1 1)" clip-path="url(#highcharts-31)"><path fill="none" d="M 38 243.33333333333334 L 114 204.4 L 190 175.20000000000002 L 266 165.4666666666667 L 342 146 L 418 97.33333333333334 L 494 29.200000000000045" stroke="#8a32b4" stroke-width="2" stroke-linejoin="round" stroke-linecap="round"></path></g><g class="highcharts-markers highcharts-series-0" transform="translate(58,36) scale(1 1)" clip-path="none"><path fill="#8a32b4" d="M 494 25.200000000000045 C 499.328 25.200000000000045 499.328 33.200000000000045 494 33.200000000000045 C 488.672 33.200000000000045 488.672 25.200000000000045 494 25.200000000000045 Z"></path><path fill="#8a32b4" d="M 418 93.33333333333334 C 423.328 93.33333333333334 423.328 101.33333333333334 418 101.33333333333334 C 412.672 101.33333333333334 412.672 93.33333333333334 418 93.33333333333334 Z"></path><path fill="#8a32b4" d="M 342 142 C 347.328 142 347.328 150 342 150 C 336.672 150 336.672 142 342 142 Z"></path><path fill="#8a32b4" d="M 266 161.4666666666667 C 271.328 161.4666666666667 271.328 169.4666666666667 266 169.4666666666667 C 260.672 169.4666666666667 260.672 161.4666666666667 266 161.4666666666667 Z"></path><path fill="#8a32b4" d="M 190 171.20000000000002 C 195.328 171.20000000000002 195.328 179.20000000000002 190 179.20000000000002 C 184.672 179.20000000000002 184.672 171.20000000000002 190 171.20000000000002 Z"></path><path fill="#8a32b4" d="M 114 200.4 C 119.328 200.4 119.328 208.4 114 208.4 C 108.672 208.4 108.672 200.4 114 200.4 Z"></path><path fill="#8a32b4" d="M 38 239.33333333333334 C 43.328 239.33333333333334 43.328 247.33333333333334 38 247.33333333333334 C 32.672 247.33333333333334 32.672 239.33333333333334 38 239.33333333333334 Z"></path></g></g><text x="300" text-anchor="middle" class="highcharts-subtitle" style="color:#000000;font-size:10px;font-family:'arial', sans-serif;text-transform:none;fill:#000000;width:536px;" y="22"><tspan>Cups of Coffee Consumed</tspan></text><g class="highcharts-data-labels highcharts-series-0" transform="translate(58,36) scale(1 1)" opacity="1"><g style="cursor:pointer;" transform="translate(29,217)"><text x="5" style="font-size:14px;font-weight:bold;font-family:'arial', sans-serif;color:#000000;text-shadow:0 0 6px #ffffff, 0 0 3px #ffffff;fill:#000000;text-rendering:geometricprecision;" y="19"><tspan>5</tspan></text></g><g style="cursor:pointer;" transform="translate(105,178)"><text x="5" style="font-size:14px;font-weight:bold;font-family:'arial', sans-serif;color:#000000;text-shadow:0 0 6px #ffffff, 0 0 3px #ffffff;fill:#000000;text-rendering:geometricprecision;" y="19"><tspan>9</tspan></text></g><g style="cursor:pointer;" transform="translate(177,149)"><text x="5" style="font-size:14px;font-weight:bold;font-family:'arial', sans-serif;color:#000000;text-shadow:0 0 6px #ffffff, 0 0 3px #ffffff;fill:#000000;text-rendering:geometricprecision;" y="19"><tspan>12</tspan></text></g><g style="cursor:pointer;" transform="translate(253,139)"><text x="5" style="font-size:14px;font-weight:bold;font-family:'arial', sans-serif;color:#000000;text-shadow:0 0 6px #ffffff, 0 0 3px #ffffff;fill:#000000;text-rendering:geometricprecision;" y="19"><tspan>13</tspan></text></g><g style="cursor:pointer;" transform="translate(329,120)"><text x="5" style="font-size:14px;font-weight:bold;font-family:'arial', sans-serif;color:#000000;text-shadow:0 0 6px #ffffff, 0 0 3px #ffffff;fill:#000000;text-rendering:geometricprecision;" y="19"><tspan>15</tspan></text></g><g style="cursor:pointer;" transform="translate(405,71)"><text x="5" style="font-size:14px;font-weight:bold;font-family:'arial', sans-serif;color:#000000;text-shadow:0 0 6px #ffffff, 0 0 3px #ffffff;fill:#000000;text-rendering:geometricprecision;" y="19"><tspan>20</tspan></text></g><g style="cursor:pointer;" transform="translate(481,3)"><text x="5" style="font-size:14px;font-weight:bold;font-family:'arial', sans-serif;color:#000000;text-shadow:0 0 6px #ffffff, 0 0 3px #ffffff;fill:#000000;text-rendering:geometricprecision;" y="19"><tspan>27</tspan></text></g></g><g class="highcharts-legend" transform="translate(212,359)"><g><g><g class="highcharts-legend-item" transform="translate(8,3)"><path fill="none" d="M 0 11 L 16 11" stroke="#8a32b4" stroke-width="2"></path><path fill="#8a32b4" d="M 8 7 C 13.328 7 13.328 15 8 15 C 2.6719999999999997 15 2.6719999999999997 7 8 7 Z"></path><text x="21" style="color:#333;font-size:9pt;font-weight:normal;cursor:pointer;font-family:'lucida grande','lucida sans unicode',arial,helvetica,sans-serif;text-transform:none;fill:#333;" text-anchor="start" y="15"><tspan>Daily Productivity Curve</tspan></text></g></g></g></g><g class="highcharts-axis-labels highcharts-xaxis-labels"><text x="96" style="color:#000000;cursor:default;font-size:10px;font-family:'arial', sans-serif;text-transform:none;font-weight:normal;fill:#000000;" text-anchor="middle" transform="translate(0,0)" y="346" opacity="1">Coffee</text><text x="172" style="color:#000000;cursor:default;font-size:10px;font-family:'arial', sans-serif;text-transform:none;font-weight:normal;fill:#000000;" text-anchor="middle" transform="translate(0,0)" y="346" opacity="1">1</text><text x="248" style="color:#000000;cursor:default;font-size:10px;font-family:'arial', sans-serif;text-transform:none;font-weight:normal;fill:#000000;" text-anchor="middle" transform="translate(0,0)" y="346" opacity="1">2</text><text x="324" style="color:#000000;cursor:default;font-size:10px;font-family:'arial', sans-serif;text-transform:none;font-weight:normal;fill:#000000;" text-anchor="middle" transform="translate(0,0)" y="346" opacity="1">3</text><text x="400" style="color:#000000;cursor:default;font-size:10px;font-family:'arial', sans-serif;text-transform:none;font-weight:normal;fill:#000000;" text-anchor="middle" transform="translate(0,0)" y="346" opacity="1">4</text><text x="476" style="color:#000000;cursor:default;font-size:10px;font-family:'arial', sans-serif;text-transform:none;font-weight:normal;fill:#000000;" text-anchor="middle" transform="translate(0,0)" y="346" opacity="1">5</text><text x="552" style="color:#000000;cursor:default;font-size:10px;font-family:'arial', sans-serif;text-transform:none;font-weight:normal;fill:#000000;" text-anchor="middle" transform="translate(0,0)" y="346" opacity="1">6</text></g><g class="highcharts-axis-labels highcharts-yaxis-labels"><text x="43" style="color:#000000;cursor:default;font-size:10px;font-family:'arial', sans-serif;text-transform:none;font-weight:normal;fill:#000000;width:188px;text-overflow:clip;" text-anchor="end" transform="translate(0,0)" y="333" opacity="1"><tspan>0</tspan></text><text x="43" style="color:#000000;cursor:default;font-size:10px;font-family:'arial', sans-serif;text-transform:none;font-weight:normal;fill:#000000;width:188px;text-overflow:clip;" text-anchor="end" transform="translate(0,0)" y="284" opacity="1"><tspan>5</tspan></text><text x="43" style="color:#000000;cursor:default;font-size:10px;font-family:'arial', sans-serif;text-transform:none;font-weight:normal;fill:#000000;width:188px;text-overflow:clip;" text-anchor="end" transform="translate(0,0)" y="235" opacity="1"><tspan>10</tspan></text><text x="43" style="color:#000000;cursor:default;font-size:10px;font-family:'arial', sans-serif;text-transform:none;font-weight:normal;fill:#000000;width:188px;text-overflow:clip;" text-anchor="end" transform="translate(0,0)" y="187" opacity="1"><tspan>15</tspan></text><text x="43" style="color:#000000;cursor:default;font-size:10px;font-family:'arial', sans-serif;text-transform:none;font-weight:normal;fill:#000000;width:188px;text-overflow:clip;" text-anchor="end" transform="translate(0,0)" y="138" opacity="1"><tspan>20</tspan></text><text x="43" style="color:#000000;cursor:default;font-size:10px;font-family:'arial', sans-serif;text-transform:none;font-weight:normal;fill:#000000;width:188px;text-overflow:clip;" text-anchor="end" transform="translate(0,0)" y="89" opacity="1"><tspan>25</tspan></text><text x="43" style="color:#000000;cursor:default;font-size:10px;font-family:'arial', sans-serif;text-transform:none;font-weight:normal;fill:#000000;width:188px;text-overflow:clip;" text-anchor="end" transform="translate(0,0)" y="41" opacity="1"><tspan>30</tspan></text></g><g class="highcharts-tooltip" display="none" style="cursor:default;padding:0;pointer-events:none;white-space:nowrap;" transform="translate(0,0)"><path fill="none" d="M 3.5 0.5 L 13.5 0.5 C 16.5 0.5 16.5 0.5 16.5 3.5 L 16.5 13.5 C 16.5 16.5 16.5 16.5 13.5 16.5 L 3.5 16.5 C 0.5 16.5 0.5 16.5 0.5 13.5 L 0.5 3.5 C 0.5 0.5 0.5 0.5 3.5 0.5"  stroke="black" stroke-opacity="0.049999999999999996" stroke-width="5" transform="translate(1, 1)"></path><path fill="none" d="M 3.5 0.5 L 13.5 0.5 C 16.5 0.5 16.5 0.5 16.5 3.5 L 16.5 13.5 C 16.5 16.5 16.5 16.5 13.5 16.5 L 3.5 16.5 C 0.5 16.5 0.5 16.5 0.5 13.5 L 0.5 3.5 C 0.5 0.5 0.5 0.5 3.5 0.5"  stroke="black" stroke-opacity="0.09999999999999999" stroke-width="3" transform="translate(1, 1)"></path><path fill="none" d="M 3.5 0.5 L 13.5 0.5 C 16.5 0.5 16.5 0.5 16.5 3.5 L 16.5 13.5 C 16.5 16.5 16.5 16.5 13.5 16.5 L 3.5 16.5 C 0.5 16.5 0.5 16.5 0.5 13.5 L 0.5 3.5 C 0.5 0.5 0.5 0.5 3.5 0.5"  stroke="black" stroke-opacity="0.15" stroke-width="1" transform="translate(1, 1)"></path><path fill="rgb(255, 255, 255)" fill-opacity=" 0.85" d="M 3.5 0.5 L 13.5 0.5 C 16.5 0.5 16.5 0.5 16.5 3.5 L 16.5 13.5 C 16.5 16.5 16.5 16.5 13.5 16.5 L 3.5 16.5 C 0.5 16.5 0.5 16.5 0.5 13.5 L 0.5 3.5 C 0.5 0.5 0.5 0.5 3.5 0.5"></path><text x="8" style="font-size:12px;color:#000000;fill:#000000;" y="20"></text></g><text x="590" text-anchor="end" style="cursor:pointer;color:#909090;font-size:9px;fill:#909090;" y="395">meta-chart.com</text></svg>